<svg viewBox="0 0 28 27.3" xmlns="http://www.w3.org/2000/svg"><g fill="#000"><circle cx="14" cy="13.6" r="1.9"/><path d="m14 19.3c-7.7 0-13.8-2.5-13.8-5.7s6-5.6 13.8-5.6 13.8 2.5 13.8 5.6-6 5.6-13.8 5.6zm0-10.1c-7.4 0-12.6 2.3-12.6 4.4s5.2 4.4 12.6 4.4 12.6-2.3 12.6-4.4-5.2-4.4-12.6-4.4z"/><path d="m19.5 25.9c-1.2 0-2.7-.7-4.3-2-2.1-1.7-4.3-4.4-6.1-7.5-3.8-6.6-4.7-13.1-2-14.7 2.7-1.6 7.9 2.4 11.7 9.1 3.9 6.7 4.7 13.1 2 14.7-.4.2-.9.4-1.4.4zm-11-23.3c-.3 0-.6 0-.8.2-1.8 1-1.3 6.7 2.4 13.1 1.7 3 3.8 5.5 5.8 7.2 1.8 1.5 3.4 2 4.3 1.5 1.8-1 1.3-6.7-2.4-13.1-3.2-5.7-7.2-8.9-9.3-8.9z"/><path d="m8.5 25.9c-.5 0-1-.1-1.4-.4-2.7-1.6-1.8-8 2-14.7 3.9-6.6 9-10.6 11.8-9.1s1.8 8-2 14.7c-1.8 3.1-3.9 5.8-6.1 7.5-1.6 1.3-3.1 2-4.3 2zm11-23.3c-2.1 0-6.1 3.2-9.3 8.9-3.7 6.4-4.3 12-2.4 13.1.9.5 2.5 0 4.3-1.5 2-1.6 4.1-4.2 5.8-7.2 3.7-6.4 4.3-12 2.4-13.1-.2-.1-.5-.2-.8-.2z"/></g></svg>